<svg width="102" height="102" viewBox="0 0 102 102" fill="none" xmlns="http://www.w3.org/2000/svg">
  <path fill-rule="evenodd" clip-rule="evenodd" d="M15.5703 13.2851C15.5703 9.26375 12.3102 6 8.28514 6C4.26375 6 1 9.26375 1 13.2851C1 17.3065 4.26375 20.5703 8.28514 20.5703C9.50069 20.5703 10.6465 20.2726 11.6538 19.7463L21.7192 29.8118C15.4875 36.7651 11.6975 45.952 11.6975 56.0242C11.6975 77.723 29.2875 95.313 50.9863 95.313C72.6851 95.313 90.275 77.723 90.275 56.0242C90.275 45.9007 86.4463 36.6716 80.1579 29.7059L90.198 19.6658C91.2408 20.2422 92.4397 20.5703 93.7148 20.5703C97.7362 20.5703 101 17.3065 101 13.2851C101 9.2601 97.7362 6 93.7148 6C89.6934 6 86.4296 9.2601 86.4296 13.2851C86.4296 14.66 86.8111 15.9464 87.474 17.044L77.4937 27.0243C70.5062 20.6339 61.2016 16.7354 50.9863 16.7354C40.9238 16.7354 31.745 20.5181 24.7942 26.739L14.7334 16.6782C15.2678 15.6647 15.5703 14.5101 15.5703 13.2851Z" fill="#FAB794"/>
  <path fill-rule="evenodd" clip-rule="evenodd" d="M51.0427 76.8547C50.7202 76.8547 50.4013 76.851 50.0788 76.8363C37.5184 76.3525 29.0372 66.6216 28.6817 66.2074C28.099 65.5294 28.1796 64.5068 28.8576 63.9277C29.532 63.345 30.5619 63.4183 31.141 64.1C31.218 64.1879 39.098 73.1859 50.2327 73.6C57.3431 73.8382 64.2592 70.6349 70.8895 64.0083C71.5199 63.3743 72.5461 63.3743 73.1802 64.0083C73.8106 64.6424 73.8106 65.665 73.1802 66.2991C66.1688 73.3068 58.7285 76.8547 51.0427 76.8547Z" fill="#F26630"/>
</svg>
